<svg width="67" height="67" viewBox="0 0 67 67" fill="none" xmlns="http://www.w3.org/2000/svg">
<path d="M58.0846 19.945C57.6149 19.131 56.9421 18.4527 56.1321 17.9762C55.3221 17.4997 54.4023 17.2413 53.4627 17.2262H18.6618L17.0849 11.0816C16.9255 10.4885 16.5701 9.96677 16.0764 9.60143C15.5827 9.2361 14.9799 9.04868 14.366 9.06971H8.92841C8.20734 9.06971 7.5158 9.35616 7.00592 9.86603C6.49604 10.3759 6.20959 11.0675 6.20959 11.7885C6.20959 12.5096 6.49604 13.2011 7.00592 13.711C7.5158 14.2209 8.20734 14.5073 8.92841 14.5073H12.2997L19.8037 42.4024C19.963 42.9956 20.3185 43.5173 20.8122 43.8826C21.3059 44.248 21.9087 44.4354 22.5225 44.4143H46.9919C47.4939 44.4128 47.9858 44.2723 48.4129 44.0084C48.84 43.7444 49.1857 43.3674 49.4116 42.919L58.3293 25.0835C58.7159 24.2734 58.8958 23.3801 58.8531 22.4835C58.8104 21.5869 58.5464 20.7148 58.0846 19.945Z" fill="#231F20"/>
<path d="M21.1631 58.0084C23.4154 58.0084 25.2413 56.1826 25.2413 53.9302C25.2413 51.6779 23.4154 49.852 21.1631 49.852C18.9107 49.852 17.0848 51.6779 17.0848 53.9302C17.0848 56.1826 18.9107 58.0084 21.1631 58.0084Z" fill="#231F20"/>
<path d="M48.3512 58.0084C50.6036 58.0084 52.4295 56.1826 52.4295 53.9302C52.4295 51.6779 50.6036 49.852 48.3512 49.852C46.0989 49.852 44.273 51.6779 44.273 53.9302C44.273 56.1826 46.0989 58.0084 48.3512 58.0084Z" fill="#231F20"/>
</svg>
